<?xml version="1.0" encoding="utf-8"?>
<!-- Generator: Adobe Illustrator 18.1.1, SVG Export Plug-In . SVG Version: 6.00 Build 0)  -->
<svg version="1.1" id="Capa_1" xmlns="http://www.w3.org/2000/svg" xmlns:xlink="http://www.w3.org/1999/xlink" x="0px" y="0px"
	 width="1200px" height="1500px" viewBox="0 0 1200 1500" enable-background="new 0 0 1200 1500" xml:space="preserve">
<path fill="#EEEEEE" d="M1073.6,276.4C992.1,194.9,883.7,150,768.4,150s-223.6,44.9-305.2,126.4S336.8,466.3,336.8,581.6
	c0,96.9,31.8,188.8,90.4,264.1l-83,83l-8.4-8.4c-11.5-11.5-30.2-11.5-41.8,0l-266,266c-37.4,37.4-37.4,98.2,0,135.6
	c18.1,18.1,42.2,28.1,67.8,28.1s49.7-10,67.8-28.1l266-266c11.5-11.5,11.5-30.2,0-41.8l-8.4-8.4l83-83
	c75.3,58.5,167.2,90.4,264.1,90.4c115.3,0,223.6-44.9,305.2-126.4c81.5-81.5,126.4-189.9,126.4-305.2
	C1200,466.3,1155.1,357.9,1073.6,276.4z M1031.8,845c-70.4,70.4-163.9,109.1-263.4,109.1c-99.5,0-193.1-38.8-263.4-109.1
	S395.9,681.1,395.9,581.6c0-99.5,38.8-193.1,109.1-263.4C575.4,247.8,668.9,209,768.4,209s193.1,38.8,263.4,109.1
	c70.4,70.4,109.1,163.9,109.1,263.4C1140.9,681.1,1102.2,774.6,1031.8,845z M789.1,283.5c2.2,16.1-9.1,31-25.2,33.2
	c-10.2,1.4-244.4,37.1-244.4,264.8c0,16.3-13.2,29.5-29.5,29.5c-16.3,0-29.5-13.2-29.5-29.5c0-146.5,81-227,149-268.6
	c71.9-44.1,143.3-54.3,146.4-54.7C772,256.1,786.9,267.4,789.1,283.5z"/>
</svg>
