<!-- Generator: Adobe Illustrator 18.1.1, SVG Export Plug-In  -->
<svg version="1.1"
	 xmlns="http://www.w3.org/2000/svg" xmlns:xlink="http://www.w3.org/1999/xlink" xmlns:a="http://ns.adobe.com/AdobeSVGViewerExtensions/3.0/"
	 x="0px" y="0px" width="163.86px" height="74.49px" viewBox="0 0 163.86 74.49" enable-background="new 0 0 163.86 74.49"
	 xml:space="preserve">
<defs>
</defs>
<g>
	<path fill="#15552B" d="M78.91,52.1h0.74v5.68h2.45v0.69h-3.19V52.1z"/>
	<path fill="#15552B" d="M85.79,57.37c0,0.4,0.02,0.78,0.07,1.1h-0.68l-0.06-0.58h-0.03c-0.23,0.36-0.67,0.68-1.26,0.68
		c-0.83,0-1.26-0.65-1.26-1.31c0-1.11,0.88-1.71,2.47-1.7v-0.1c0-0.38-0.09-1.06-0.94-1.06c-0.38,0-0.78,0.13-1.07,0.34l-0.17-0.55
		c0.34-0.25,0.83-0.4,1.36-0.4c1.25,0,1.56,0.95,1.56,1.87V57.37z M85.07,56.13c-0.82-0.02-1.74,0.14-1.74,1.03
		c0,0.54,0.32,0.79,0.7,0.79c0.54,0,0.88-0.38,1-0.77c0.03-0.08,0.04-0.18,0.04-0.26V56.13z"/>
	<path fill="#15552B" d="M87.86,52.79v1.1h1.07v0.63h-1.07v2.46c0,0.57,0.14,0.89,0.56,0.89c0.21,0,0.32-0.02,0.44-0.06l0.03,0.62
		c-0.14,0.07-0.37,0.13-0.66,0.13c-0.35,0-0.63-0.13-0.81-0.36c-0.21-0.25-0.29-0.65-0.29-1.19v-2.49h-0.63v-0.63h0.63v-0.84
		L87.86,52.79z"/>
	<path fill="#15552B" d="M90.61,52.61c0,0.28-0.18,0.51-0.48,0.51c-0.26,0-0.45-0.23-0.45-0.51c0-0.29,0.19-0.52,0.47-0.52
		C90.43,52.09,90.61,52.31,90.61,52.61z M89.77,58.46v-4.57h0.75v4.57H89.77z"/>
	<path fill="#15552B" d="M91.76,55.13c0-0.47-0.01-0.86-0.04-1.24h0.66l0.04,0.75h0.01c0.2-0.43,0.68-0.86,1.36-0.86
		c0.57,0,1.45,0.38,1.45,1.95v2.73h-0.75v-2.64c0-0.74-0.25-1.35-0.95-1.35c-0.49,0-0.87,0.39-1,0.85c-0.04,0.1-0.05,0.24-0.05,0.39
		v2.75h-0.75V55.13z"/>
	<path fill="#15552B" d="M99.23,56.46l-0.6,2h-0.77l1.95-6.37h0.89l1.95,6.37h-0.79l-0.62-2H99.23z M101.11,55.82l-0.56-1.83
		c-0.13-0.42-0.21-0.79-0.3-1.16h-0.02c-0.09,0.38-0.18,0.77-0.29,1.15l-0.56,1.84H101.11z"/>
	<path fill="#15552B" d="M103.45,55.13c0-0.47-0.01-0.86-0.03-1.24h0.66l0.03,0.74h0.03c0.23-0.43,0.61-0.84,1.29-0.84
		c0.56,0,0.99,0.38,1.16,0.92h0.02c0.13-0.25,0.29-0.45,0.46-0.59c0.25-0.21,0.52-0.32,0.91-0.32c0.54,0,1.35,0.4,1.35,1.98v2.69
		h-0.73v-2.59c0-0.88-0.29-1.41-0.89-1.41c-0.42,0-0.76,0.35-0.88,0.76c-0.04,0.11-0.06,0.27-0.06,0.42v2.82h-0.73v-2.74
		c0-0.73-0.29-1.26-0.86-1.26c-0.47,0-0.81,0.42-0.93,0.83c-0.04,0.12-0.06,0.27-0.06,0.41v2.76h-0.73V55.13z"/>
	<path fill="#15552B" d="M110.96,56.33c0.01,1.13,0.66,1.59,1.41,1.59c0.54,0,0.86-0.1,1.14-0.24l0.13,0.6
		c-0.26,0.13-0.71,0.29-1.37,0.29c-1.27,0-2.02-0.94-2.02-2.31c0-1.38,0.73-2.47,1.93-2.47c1.34,0,1.7,1.31,1.7,2.15
		c0,0.17-0.02,0.3-0.03,0.39H110.96z M113.15,55.73c0.01-0.53-0.19-1.35-1.03-1.35c-0.76,0-1.09,0.77-1.15,1.35H113.15z"/>
	<path fill="#15552B" d="M114.8,55.32c0-0.54-0.01-1-0.04-1.43h0.66l0.02,0.9h0.04c0.19-0.61,0.64-1,1.14-1
		c0.08,0,0.14,0.01,0.21,0.03v0.78c-0.08-0.02-0.16-0.03-0.26-0.03c-0.52,0-0.9,0.44-1,1.07c-0.02,0.11-0.04,0.25-0.04,0.39v2.44
		h-0.74V55.32z"/>
	<path fill="#15552B" d="M118.45,52.61c0.01,0.28-0.18,0.51-0.48,0.51c-0.26,0-0.45-0.23-0.45-0.51c0-0.29,0.2-0.52,0.46-0.52
		C118.27,52.09,118.45,52.31,118.45,52.61z M117.61,58.46v-4.57h0.75v4.57H117.61z"/>
	<path fill="#15552B" d="M122.54,58.29c-0.2,0.12-0.63,0.28-1.18,0.28c-1.24,0-2.05-0.95-2.05-2.35c0-1.41,0.87-2.43,2.21-2.43
		c0.44,0,0.83,0.12,1.04,0.23l-0.17,0.64c-0.18-0.11-0.46-0.22-0.87-0.22c-0.94,0-1.45,0.77-1.45,1.73c0,1.06,0.61,1.71,1.43,1.71
		c0.43,0,0.71-0.12,0.92-0.23L122.54,58.29z"/>
	<path fill="#15552B" d="M126.3,57.37c0,0.4,0.02,0.78,0.07,1.1h-0.68l-0.06-0.58h-0.03c-0.23,0.36-0.67,0.68-1.26,0.68
		c-0.83,0-1.26-0.65-1.26-1.31c0-1.11,0.89-1.71,2.47-1.7v-0.1c0-0.38-0.1-1.06-0.94-1.06c-0.38,0-0.78,0.13-1.07,0.34l-0.17-0.55
		c0.34-0.25,0.83-0.4,1.35-0.4c1.26,0,1.56,0.95,1.56,1.87V57.37z M125.58,56.13c-0.82-0.02-1.74,0.14-1.74,1.03
		c0,0.54,0.33,0.79,0.71,0.79c0.54,0,0.88-0.38,1-0.77c0.03-0.08,0.04-0.18,0.04-0.26V56.13z"/>
	<path fill="#15552B" d="M127.5,55.13c0-0.47-0.01-0.86-0.03-1.24h0.67l0.04,0.75h0.01c0.21-0.43,0.68-0.86,1.36-0.86
		c0.57,0,1.46,0.38,1.46,1.95v2.73h-0.75v-2.64c0-0.74-0.25-1.35-0.95-1.35c-0.49,0-0.88,0.39-1,0.85c-0.04,0.1-0.05,0.24-0.05,0.39
		v2.75h-0.75V55.13z"/>
	<path fill="#15552B" d="M138.05,58.25c-0.27,0.15-0.82,0.31-1.51,0.31c-1.61,0-2.83-1.14-2.83-3.23c0-1.99,1.22-3.34,2.99-3.34
		c0.71,0,1.16,0.17,1.36,0.28l-0.18,0.67c-0.28-0.15-0.68-0.27-1.16-0.27c-1.34,0-2.24,0.96-2.24,2.63c0,1.56,0.81,2.56,2.2,2.56
		c0.45,0,0.91-0.1,1.21-0.26L138.05,58.25z"/>
	<path fill="#15552B" d="M139.28,56.33c0.02,1.13,0.66,1.59,1.41,1.59c0.53,0,0.86-0.1,1.14-0.24l0.13,0.6
		c-0.26,0.13-0.71,0.29-1.37,0.29c-1.26,0-2.03-0.94-2.03-2.31c0-1.38,0.73-2.47,1.93-2.47c1.34,0,1.7,1.31,1.7,2.15
		c0,0.17-0.02,0.3-0.03,0.39H139.28z M141.47,55.73c0.01-0.53-0.2-1.35-1.04-1.35c-0.76,0-1.09,0.77-1.15,1.35H141.47z"/>
	<path fill="#15552B" d="M143.12,55.13c0-0.47-0.01-0.86-0.03-1.24h0.66l0.04,0.75h0.02c0.2-0.43,0.68-0.86,1.36-0.86
		c0.57,0,1.45,0.38,1.45,1.95v2.73h-0.75v-2.64c0-0.74-0.24-1.35-0.95-1.35c-0.49,0-0.87,0.39-1,0.85c-0.04,0.1-0.05,0.24-0.05,0.39
		v2.75h-0.75V55.13z"/>
	<path fill="#15552B" d="M148.7,52.79v1.1h1.07v0.63h-1.07v2.46c0,0.57,0.15,0.89,0.56,0.89c0.21,0,0.33-0.02,0.43-0.06l0.04,0.62
		c-0.15,0.07-0.38,0.13-0.67,0.13c-0.35,0-0.63-0.13-0.81-0.36c-0.21-0.25-0.29-0.65-0.29-1.19v-2.49h-0.64v-0.63h0.64v-0.84
		L148.7,52.79z"/>
	<path fill="#15552B" d="M150.98,56.33c0.02,1.13,0.67,1.59,1.41,1.59c0.54,0,0.86-0.1,1.14-0.24l0.12,0.6
		c-0.26,0.13-0.71,0.29-1.36,0.29c-1.27,0-2.03-0.94-2.03-2.31c0-1.38,0.73-2.47,1.93-2.47c1.34,0,1.7,1.31,1.7,2.15
		c0,0.17-0.02,0.3-0.03,0.39H150.98z M153.17,55.73c0.01-0.53-0.19-1.35-1.04-1.35c-0.76,0-1.09,0.77-1.15,1.35H153.17z"/>
	<path fill="#15552B" d="M154.82,55.32c0-0.54-0.01-1-0.04-1.43h0.65l0.03,0.9h0.03c0.19-0.61,0.64-1,1.14-1
		c0.09,0,0.14,0.01,0.21,0.03v0.78c-0.07-0.02-0.15-0.03-0.25-0.03c-0.53,0-0.9,0.44-1,1.07c-0.02,0.11-0.03,0.25-0.03,0.39v2.44
		h-0.74V55.32z"/>
	<path fill="#15552B" d="M78.18,69.93v-3.94H77.6v-0.63h0.58v-0.22c0-0.64,0.13-1.23,0.47-1.6c0.28-0.3,0.65-0.42,1.01-0.42
		c0.26,0,0.49,0.07,0.63,0.13l-0.1,0.64c-0.11-0.06-0.26-0.1-0.47-0.1c-0.64,0-0.8,0.63-0.8,1.32v0.25h1v0.63h-1v3.94H78.18z"/>
	<path fill="#15552B" d="M84.2,67.61c0,1.69-1.05,2.43-2.05,2.43c-1.11,0-1.97-0.91-1.97-2.35c0-1.53,0.9-2.43,2.04-2.43
		C83.4,65.26,84.2,66.21,84.2,67.61z M80.93,67.65c0,1,0.52,1.75,1.25,1.75c0.71,0,1.25-0.75,1.25-1.77c0-0.78-0.35-1.76-1.23-1.76
		C81.32,65.88,80.93,66.78,80.93,67.65z"/>
	<path fill="#15552B" d="M85.14,66.78c0-0.54-0.01-1-0.03-1.43h0.66l0.02,0.9h0.04c0.19-0.61,0.64-1,1.14-1
		c0.09,0,0.15,0.01,0.22,0.03v0.79c-0.08-0.02-0.15-0.03-0.25-0.03c-0.53,0-0.9,0.44-1,1.07c-0.02,0.11-0.03,0.25-0.03,0.39v2.44
		h-0.74V66.78z"/>
	<path fill="#15552B" d="M89.75,63.65c0.38-0.09,0.91-0.13,1.42-0.13c0.79,0,1.3,0.16,1.66,0.52c0.29,0.28,0.45,0.72,0.45,1.21
		c0,0.84-0.48,1.4-1.08,1.63v0.03c0.44,0.17,0.71,0.63,0.84,1.29c0.19,0.88,0.32,1.5,0.44,1.75h-0.77
		c-0.09-0.19-0.22-0.73-0.38-1.52c-0.17-0.88-0.48-1.21-1.15-1.24h-0.7v2.76h-0.74V63.65z M90.49,66.55h0.75
		c0.79,0,1.29-0.48,1.29-1.21c0-0.82-0.54-1.18-1.32-1.19c-0.35,0-0.61,0.04-0.73,0.08V66.55z"/>
	<path fill="#15552B" d="M97.74,68.68c0,0.47,0.01,0.89,0.04,1.25h-0.66l-0.04-0.74h-0.01c-0.2,0.37-0.63,0.85-1.36,0.85
		c-0.65,0-1.42-0.4-1.42-2v-2.67h0.75v2.53c0,0.87,0.24,1.45,0.92,1.45c0.5,0,0.85-0.39,0.99-0.75c0.04-0.13,0.07-0.28,0.07-0.43
		v-2.81h0.75V68.68z"/>
	<path fill="#15552B" d="M98.98,66.78c0-0.54-0.01-1-0.04-1.43h0.66l0.03,0.9h0.04c0.18-0.61,0.64-1,1.14-1
		c0.08,0,0.14,0.01,0.21,0.03v0.79c-0.08-0.02-0.15-0.03-0.25-0.03c-0.53,0-0.9,0.44-1,1.07c-0.01,0.11-0.04,0.25-0.04,0.39v2.44
		h-0.73V66.78z"/>
	<path fill="#15552B" d="M104.61,68.84c0,0.4,0.02,0.78,0.07,1.09h-0.68l-0.06-0.58h-0.02c-0.23,0.36-0.67,0.68-1.26,0.68
		c-0.83,0-1.26-0.65-1.26-1.31c0-1.11,0.88-1.71,2.48-1.7v-0.09c0-0.38-0.09-1.06-0.94-1.06c-0.38,0-0.78,0.13-1.07,0.34l-0.17-0.55
		c0.34-0.25,0.83-0.4,1.35-0.4c1.25,0,1.56,0.95,1.56,1.87V68.84z M103.88,67.59c-0.81-0.02-1.74,0.14-1.74,1.03
		c0,0.54,0.32,0.79,0.7,0.79c0.53,0,0.88-0.38,0.99-0.77c0.03-0.09,0.04-0.18,0.04-0.27V67.59z"/>
	<path fill="#15552B" d="M105.81,63.22h0.75v6.71h-0.75V63.22z"/>
	<path fill="#15552B" d="M109.65,63.65c0.45-0.08,0.98-0.13,1.57-0.13c1.06,0,1.82,0.28,2.32,0.79c0.51,0.52,0.81,1.26,0.81,2.29
		c0,1.04-0.29,1.89-0.83,2.47c-0.53,0.6-1.42,0.92-2.53,0.92c-0.53,0-0.97-0.03-1.34-0.08V63.65z M110.38,69.28
		c0.19,0.04,0.46,0.05,0.75,0.05c1.58,0,2.44-0.98,2.44-2.7c0.01-1.5-0.76-2.46-2.32-2.46c-0.38,0-0.67,0.04-0.87,0.09V69.28z"/>
	<path fill="#15552B" d="M115.73,67.8c0.02,1.13,0.67,1.59,1.42,1.59c0.53,0,0.86-0.11,1.14-0.24l0.13,0.59
		c-0.26,0.13-0.72,0.29-1.37,0.29c-1.27,0-2.02-0.93-2.02-2.31c0-1.38,0.73-2.46,1.93-2.46c1.35,0,1.7,1.31,1.7,2.15
		c0,0.17-0.02,0.3-0.02,0.39H115.73z M117.92,67.2c0.01-0.53-0.2-1.35-1.04-1.35c-0.75,0-1.08,0.77-1.15,1.35H117.92z"/>
	<path fill="#15552B" d="M119.86,65.36l0.8,2.57c0.14,0.42,0.25,0.8,0.33,1.17h0.03c0.09-0.38,0.21-0.76,0.35-1.17l0.8-2.57h0.78
		l-1.62,4.57h-0.71l-1.57-4.57H119.86z"/>
	<path fill="#15552B" d="M123.99,67.8c0.02,1.13,0.66,1.59,1.41,1.59c0.54,0,0.86-0.11,1.14-0.24l0.13,0.59
		c-0.26,0.13-0.72,0.29-1.37,0.29c-1.26,0-2.02-0.93-2.02-2.31c0-1.38,0.73-2.46,1.93-2.46c1.34,0,1.7,1.31,1.7,2.15
		c0,0.17-0.02,0.3-0.03,0.39H123.99z M126.18,67.2c0.01-0.53-0.2-1.35-1.04-1.35c-0.76,0-1.09,0.77-1.15,1.35H126.18z"/>
	<path fill="#15552B" d="M127.83,63.22h0.75v6.71h-0.75V63.22z"/>
	<path fill="#15552B" d="M133.56,67.61c0,1.69-1.06,2.43-2.05,2.43c-1.12,0-1.97-0.91-1.97-2.35c0-1.53,0.9-2.43,2.04-2.43
		C132.76,65.26,133.56,66.21,133.56,67.61z M130.3,67.65c0,1,0.52,1.75,1.25,1.75c0.71,0,1.25-0.75,1.25-1.77
		c0-0.78-0.35-1.76-1.23-1.76C130.68,65.88,130.3,66.78,130.3,67.65z"/>
	<path fill="#15552B" d="M134.5,66.85c0-0.59-0.02-1.06-0.03-1.49h0.67l0.04,0.79h0.01c0.31-0.56,0.79-0.89,1.46-0.89
		c0.99,0,1.74,0.93,1.74,2.32c0,1.64-0.9,2.46-1.87,2.46c-0.54,0-1.02-0.26-1.27-0.71h-0.02v2.48h-0.74V66.85z M135.24,68.07
		c0,0.12,0.02,0.24,0.04,0.34c0.13,0.57,0.58,0.97,1.12,0.97c0.79,0,1.25-0.72,1.25-1.77c0-0.92-0.43-1.7-1.22-1.7
		c-0.51,0-0.99,0.41-1.13,1.03c-0.02,0.1-0.05,0.23-0.05,0.34V68.07z"/>
	<path fill="#15552B" d="M139.34,66.6c0-0.47-0.01-0.86-0.04-1.24h0.66l0.04,0.74h0.02c0.23-0.44,0.61-0.84,1.29-0.84
		c0.56,0,0.99,0.37,1.17,0.91h0.02c0.13-0.25,0.29-0.45,0.46-0.59c0.24-0.21,0.52-0.32,0.91-0.32c0.54,0,1.35,0.39,1.35,1.98v2.69
		h-0.73v-2.59c0-0.88-0.29-1.41-0.89-1.41c-0.42,0-0.76,0.35-0.89,0.76c-0.03,0.11-0.06,0.26-0.06,0.42v2.82h-0.74v-2.74
		c0-0.73-0.29-1.26-0.86-1.26c-0.47,0-0.81,0.42-0.93,0.83c-0.04,0.12-0.06,0.26-0.06,0.41v2.76h-0.73V66.6z"/>
	<path fill="#15552B" d="M146.85,67.8c0.01,1.13,0.66,1.59,1.41,1.59c0.54,0,0.86-0.11,1.14-0.24l0.13,0.59
		c-0.26,0.13-0.71,0.29-1.37,0.29c-1.27,0-2.03-0.93-2.03-2.31c0-1.38,0.73-2.46,1.93-2.46c1.34,0,1.7,1.31,1.7,2.15
		c0,0.17-0.02,0.3-0.03,0.39H146.85z M149.03,67.2c0.01-0.53-0.2-1.35-1.04-1.35c-0.76,0-1.09,0.77-1.15,1.35H149.03z"/>
	<path fill="#15552B" d="M150.68,66.6c0-0.47-0.01-0.86-0.04-1.24h0.67l0.04,0.75h0.02c0.2-0.43,0.68-0.86,1.36-0.86
		c0.57,0,1.45,0.37,1.45,1.94v2.73h-0.75v-2.64c0-0.74-0.25-1.35-0.95-1.35c-0.49,0-0.88,0.39-1,0.85c-0.03,0.1-0.05,0.24-0.05,0.38
		v2.75h-0.75V66.6z"/>
	<path fill="#15552B" d="M156.27,64.26v1.1h1.07v0.63h-1.07v2.47c0,0.56,0.14,0.88,0.56,0.88c0.2,0,0.33-0.02,0.43-0.06l0.04,0.62
		c-0.14,0.07-0.37,0.12-0.66,0.12c-0.35,0-0.63-0.13-0.81-0.36c-0.22-0.25-0.29-0.65-0.29-1.19v-2.49h-0.64v-0.63h0.64v-0.84
		L156.27,64.26z"/>
	<path fill="#289600" d="M51.5,51.2c0.81,0.25,1.67,0.51,2.58,0.76c2.79,0.78,3.21,3.04,0.89,4.77c-2.22,1.65-4.4,2.41-6.62,2.82
		c0.72,0.92,1.67,1.72,2.29,1.98c1.22,0.55,1.49,1.53,0.57,2.54c-2.04,2.06-4.79,2.24-7.51,2.54c1.11,0.52,6.17,1.88,4.36,3.7
		c-0.76,0.66-1.7,0.97-2.66,1.19c0.41,0.44,0.53,0.59,1.01,1.04c0.47,0.43,0.86,2.06-0.24,1.92c-2.06-0.37-3.36-1.64-4.74-3.12
		c-0.78-0.87-0.37-1.55,0.67-1.86c1.06-0.27,2.3-0.15,3.16-0.92c0.76-0.84-5.76-0.96-6.85-1.88c-0.9-0.94-0.77-1.88,0.48-2.34
		c1.67-0.53,3.59-0.28,5.31-0.42c-1.26-0.78-1.74-1.79-5.16-2.36c-3.33-0.55-5.98-5.28,0.95-6.48c-2.18-2.57-6.31-3.29-7.85-3.75
		c-1.24-0.37-2.14-2.8-0.07-3.18c0.21-0.03,1.68-0.3,1.89-0.33c-0.71-0.14-2.32-0.5-2.42-0.53c-1.84-0.69-2.07-3.46,0.14-3.71
		c0.1-0.01,1.95,0.07,2.77,0.11c-1.14-0.57-2.12-1.38-2.96-2.33c-1.22-1.49-1.25-5,0.8-5.05c5.68,0.04,7.89,1.14,17.59,1.8
		c-9.69-1.64-16.07-2.93-21.45-3.04c-2.33-0.04-2.19-3.81,0.07-3.91c5.8-0.25,11.62-0.04,17.42,0.01
		c-2.36-0.3-12.86-0.76-15.73-0.73c-1.4,0.01-1.99-1.39-1.57-2.6c-1.7-0.07-3.4-0.21-5.08-0.47c-1.89-0.37-1.45-2.21-0.28-3.19
		c0.97-0.75,2.1-1.19,3.21-1.7c-0.1-0.07,0.36-4.14,4.88-4.11c2.12,0.12,4.11-0.45,5.11-0.7c-1.89,0.06-3.52,0.43-5.27,0.29
		c-2.41-0.19-4.83-1.02-7.26-0.69c-1.56,0.21-1.31-1.57-0.56-2.37c-0.23-0.46-0.05-1,0.2-1.41c-1.67,0.39-13.98,4.11-14.07,4.13
		c-0.53,0.08-1.73-1.87-3.22-1.06c-5.29,2.89-9.05,1.49-3.58-2.27C27.32-2.61,70.98-7.15,103,15.21c0.04-0.07,0.41,0.16,0.17,0
		C73.15-5.68,40.76,4.48,27.78,8.34C36.8,6.13,45.97,5.67,55.16,7c1.36,0.25,2.83,1.7,0.9,2.38c-1.53,0.46-3.09,0.58-4.68,0.48
		c0.7,0.92-0.19,1.72-1.07,1.99c-1.4,0.38-2.81,0.73-4.24,1.04c-0.12,0.27-0.3,0.51-0.5,0.72c-1.23,1.28-2.84,1.86-4.56,2.09
		c0.03,0.41-0.08,1.1-0.08,1.1c-0.32,3.71-5.18,3.88-8.11,4.17c3.32,0.37,6.14-0.81,5.84,1.69c-0.17,1.4-3.24,0.9-3.62,1.18
		c4.09,0.17,3.16,0.21,7.27,0.67c1.34,0.19,2.28,1.05,1.69,2.44c5.74,0.6,11.39,1.73,17,3.04c1.67,0.44,1.46,1.92,1.14,3.21
		c-0.33,1.31-1.23,0.55-2.58,2.3c1.82,0.92,3.05,2.4,3.25,4.47c0.07,1.34-0.66,2.17-2.01,2.21c0,0,1.08,1.27,5.57,2.59
		c2.05,0.74,1.14,3.41-0.77,3.6c-3.24,0.32-6.51,0.51-9.76,0.7c-0.28,0.65-0.88,1.07-1.53,1.32c-0.99,0.36-1.99,0.63-2.99,0.81
		L51.5,51.2z"/>
	<path fill-rule="evenodd" clip-rule="evenodd" fill="#15552B" d="M155.21,37.79h1.37h0.38h0.31c0.38,0,0.69-0.01,0.93-0.02
		c0.24-0.02,0.45-0.05,0.64-0.1c0.48-0.08,0.93-0.25,1.35-0.51c0.43-0.27,0.79-0.7,1.11-1.3c0.31-0.6,0.46-1.22,0.46-1.86
		c0-0.87-0.26-1.61-0.79-2.24c-0.53-0.63-1.06-1.01-1.59-1.15l-1.46-0.24h-1.07h-1.66V37.79z M153.15,42.8v-9.71l-0.1-2.02
		l-0.07-1.4v-0.65h3.57h0.94h0.55c0.18,0,0.41,0.02,0.7,0.05c1.56,0.19,2.8,0.72,3.73,1.61c0.92,0.89,1.39,2,1.39,3.35
		c0,0.98-0.23,1.84-0.69,2.57c-0.46,0.74-1.09,1.3-1.89,1.69c-0.32,0.14-0.67,0.28-1.08,0.41c-0.4,0.13-0.76,0.22-1.08,0.27
		c-0.32,0.06-0.7,0.1-1.13,0.13c-0.44,0.04-0.93,0.05-1.48,0.05h-1.3v3.61c0,1.23,0.06,2.38,0.17,3.44v0.64h-2.41l0.07-2.25
		L153.15,42.8z M136.26,43.98c1.02,0.64,1.84,1.09,2.43,1.35c0.59,0.26,1.21,0.39,1.85,0.39c1.07,0,1.95-0.33,2.66-0.99
		c0.7-0.66,1.05-1.5,1.05-2.5c0-0.7-0.23-1.32-0.68-1.86c-0.45-0.54-1.23-1.1-2.34-1.66l-1.41-0.76c-1.22-0.59-2.12-1.22-2.7-1.9
		c-0.58-0.68-0.87-1.53-0.87-2.56c0-1.27,0.54-2.35,1.61-3.26c1.07-0.9,2.35-1.35,3.84-1.35c0.61,0,1.09,0.04,1.42,0.13
		c0.38,0.07,0.95,0.26,1.71,0.58l0.58,0.2v1.86c-1.01-0.58-1.77-0.97-2.28-1.17c-0.51-0.2-1.02-0.3-1.53-0.3
		c-0.93,0-1.71,0.28-2.34,0.86c-0.63,0.57-0.95,1.3-0.95,2.17c0,0.58,0.09,1.02,0.26,1.32c0.18,0.29,0.56,0.63,1.16,1.01l0.89,0.54
		l1.74,0.88l0.74,0.41c0.3,0.15,0.89,0.52,1.8,1.11c0.9,0.59,1.35,1.73,1.35,3.41c0,1.49-0.54,2.71-1.61,3.66
		c-1.08,0.95-2.47,1.43-4.18,1.43c-0.56,0-1.01-0.04-1.35-0.12c-0.43-0.05-0.76-0.16-1.02-0.34l-1.25-0.42l-0.58-0.29V43.98z
		 M129.41,29.02l-0.02,0.47v0.6l-0.07,1.37v1.63v9.75l0.07,1.57v1.76v0.68h-2.24v-0.68v-1.84l0.08-1.26v-0.3v-0.37V33.1l-0.08-2.97
		v-0.48v-0.63H129.41z M102.11,46.16l0.32-3.41l0.54-9.71c0.08-0.91,0.13-1.97,0.13-3.17l-0.02-0.85h2.2l5.8,13.49l5.6-13.49h2.25
		v0.76l0.12,3.28l0.57,9.67l0.05,0.81l0.08,0.79l0.14,1.37l0.09,1.16h-2.33c0-0.35-0.01-0.75-0.03-1.2
		c-0.01-0.45-0.02-0.82-0.02-1.1v-0.75v-0.64c-0.02-0.18-0.03-0.31-0.03-0.38l-0.7-11.51l-5.54,13.65l-1.27-0.01l-5.67-13.51
		l-0.62,11.37l-0.06,3.24v0.82h-1.67L102.11,46.16z M95.04,29.02l-0.01,0.47v0.6l-0.08,1.37v1.63v9.75l0.08,1.57v1.76v0.68h-2.24
		v-0.68v-1.84l0.08-1.26v-0.3v-0.37V33.1l-0.08-2.97v-0.48v-0.63H95.04z M77.01,37.59h0.28c0.39,0,0.74-0.01,1.07-0.02
		c0.33-0.01,0.64-0.04,0.96-0.08c0.31-0.04,0.63-0.09,0.96-0.14c0.33-0.06,0.69-0.14,1.06-0.25c0.58-0.14,1.11-0.52,1.57-1.12
		c0.47-0.6,0.7-1.32,0.7-2.13c0-0.91-0.27-1.65-0.82-2.23c-0.55-0.57-1.18-0.91-1.9-1l-1.68-0.16h-0.77h-1.45V37.59z M74.97,42.78
		v-9.66l-0.12-1.95v-1.54v-0.61h4.82c1.93,0,3.46,0.42,4.56,1.27c1.11,0.85,1.66,2.02,1.66,3.52c0,1.51-0.55,2.73-1.66,3.66
		c-1.11,0.93-2.55,1.4-4.31,1.4l3.56,3.79l0.63,0.8l0.63,0.69l1.27,1.47l0.83,1.23h-2.76l-0.44-0.7c-0.81-1-1.7-2.08-2.64-3.23
		l-3.48-4.02l-0.49-0.04v3.97l0.1,1.91v1.45v0.66h-2.26c0-0.62,0.02-1.38,0.06-2.28C74.95,43.68,74.97,43.08,74.97,42.78z"/>
</g>
</svg>
