<?xml version="1.0" encoding="utf-8"?>
<!-- Generator: Adobe Illustrator 18.1.1, SVG Export Plug-In . SVG Version: 6.00 Build 0)  -->
<svg version="1.1" id="Capa_1" xmlns="http://www.w3.org/2000/svg" xmlns:xlink="http://www.w3.org/1999/xlink" x="0px" y="0px"
	 width="79.5px" height="79.5px" viewBox="-559 711.5 79.5 79.5" enable-background="new -559 711.5 79.5 79.5"
	 xml:space="preserve">
<g>
	<path fill="#333333" d="M-481.4,724.3l-9.9-10c-1.4-1.4-4.1-0.9-6.1,1.1l-9.1,9.1l-12.5-13h-38.9V791h61.3v-46.5l14.2-14.1
		C-480.5,728.4-480,725.7-481.4,724.3z M-517.9,721.8l6.9,7.2l-3.8,3.8h-3.1V721.8z M-516.5,760.4l-13.7,5.6l-2.9-3l5.6-13.7
		L-516.5,760.4z M-503.1,784.6h-48.4v-66.6h28.7v19.7h3.1l-3.7,3.7h-21.2v3.2h18l-2.9,2.9l-3,7.3h-12.1v3.2h10.8l-4.2,10.2h-6.7v3.2
		h34.6V768h-18.7l14-5.7l4.5-4.5h0.1v-0.1l6.9-6.8L-503.1,784.6L-503.1,784.6L-503.1,784.6z"/>
</g>
</svg>
