<?xml version="1.0" encoding="utf-8"?>
<!-- Generator: Adobe Illustrator 18.1.1, SVG Export Plug-In . SVG Version: 6.00 Build 0)  -->
<svg version="1.1" id="Capa_1" xmlns="http://www.w3.org/2000/svg" xmlns:xlink="http://www.w3.org/1999/xlink" x="0px" y="0px"
	 width="1200px" height="1500px" viewBox="0 0 1200 1500" enable-background="new 0 0 1200 1500" xml:space="preserve">
<g>
	<path fill="#333333" d="M600,736.9c133.4,0,241.6-131.4,241.6-293.4C841.6,281.4,806.1,150,600,150S358.4,281.4,358.4,443.4
		C358.4,605.5,466.6,736.9,600,736.9z"/>
	<path fill="#333333" d="M143.7,1184.9C143.6,1175,143.6,1182.1,143.7,1184.9L143.7,1184.9z"/>
	<path fill="#333333" d="M1056.3,1192.6C1056.4,1189.9,1056.3,1173.9,1056.3,1192.6L1056.3,1192.6z"/>
	<path fill="#333333" d="M1055.8,1173.1c-4.5-282.3-41.3-362.8-323.5-413.7c0,0-39.7,50.6-132.3,50.6s-132.3-50.6-132.3-50.6
		C188.6,809.8,149.5,889,144.4,1163.9c-0.4,22.4-0.6,23.6-0.7,21c0,4.9,0,13.9,0,29.7c0,0,67.2,135.4,456.3,135.4
		c389.1,0,456.3-135.4,456.3-135.4c0-10.1,0-17.2,0-21.9C1056.2,1194.3,1056.1,1191.1,1055.8,1173.1z"/>
</g>
</svg>
