<!-- Generator: Adobe Illustrator 18.1.1, SVG Export Plug-In  -->
<svg version="1.1"
	 xmlns="http://www.w3.org/2000/svg" xmlns:xlink="http://www.w3.org/1999/xlink" xmlns:a="http://ns.adobe.com/AdobeSVGViewerExtensions/3.0/"
	 x="0px" y="0px" width="42px" height="42px" viewBox="0 0 42 42" enable-background="new 0 0 42 42" xml:space="preserve">
<defs>
	<symbol  id="twitter" viewBox="-12 -9.75 24 19.5">
		<path id="twitter_2_" class="icon-paint" d="M12,7.44c-0.88-0.39-1.83-0.66-2.83-0.78c1.02,0.61,1.8,1.57,2.16,2.72
			C10.39,8.83,9.33,8.42,8.21,8.2c-0.9,0.96-2.18,1.55-3.59,1.55c-2.72,0-4.92-2.2-4.92-4.92c0-0.39,0.04-0.76,0.13-1.12
			C-4.27,3.91-7.9,5.87-10.33,8.85C-10.75,8.12-11,7.28-11,6.38c0-1.71,0.87-3.22,2.19-4.1c-0.81,0.03-1.57,0.25-2.23,0.62
			c0-0.02,0-0.04,0-0.06c0-2.39,1.7-4.38,3.95-4.83c-0.41-0.11-0.85-0.17-1.3-0.17c-0.32,0-0.63,0.03-0.93,0.09
			c0.63-1.96,2.45-3.38,4.6-3.42c-1.69-1.32-3.81-2.11-6.12-2.11c-0.4,0-0.79,0.02-1.17,0.07c2.18-1.4,4.77-2.21,7.55-2.21
			c9.06,0,14.01,7.5,14.01,14.01c0,0.21,0,0.43-0.01,0.64C10.51,5.59,11.34,6.46,12,7.44z"/>
	</symbol>
</defs>
<g>
	
		<use xlink:href="#twitter"  width="24" height="19.5" x="-12" y="-9.75" transform="matrix(0.75 0 0 -0.75 22.287 20.8422)" overflow="visible"/>
</g>
</svg>
