<svg style="display: none;"><defs> <symbol id="sq-face-facebook" viewBox="-5.83 -12 11.66 24"> <path id="sq-face-facebook_2_" class="icon-paint" d="M-2.85-12v11.26h-2.98v4.05h2.98c0,0,0,1.66,0,3.46C-2.85,9.5-1.1,12,2.96,12
			c1.64,0,2.85-0.16,2.85-0.16l-0.1-3.79c0,0-1.24,0.01-2.59,0.01c-1.46,0-1.7-0.67-1.7-1.79c0-0.88,0,1.88,0-2.96h4.4L5.64-0.74
			H1.43V-12H-2.85z"/> </symbol>   <symbol id="sq-twitt-twitter" viewBox="-12 -9.75 24 19.5"> <path id="sq-twitt-twitter_2_" class="icon-paint" d="M12,7.44c-0.88-0.39-1.83-0.66-2.83-0.78c1.02,0.61,1.8,1.57,2.16,2.72
			C10.39,8.83,9.33,8.42,8.21,8.2c-0.9,0.96-2.18,1.55-3.59,1.55c-2.72,0-4.92-2.2-4.92-4.92c0-0.39,0.04-0.76,0.13-1.12
			C-4.27,3.91-7.9,5.87-10.33,8.85C-10.75,8.12-11,7.28-11,6.38c0-1.71,0.87-3.22,2.19-4.1c-0.81,0.03-1.57,0.25-2.23,0.62
			c0-0.02,0-0.04,0-0.06c0-2.39,1.7-4.38,3.95-4.83c-0.41-0.11-0.85-0.17-1.3-0.17c-0.32,0-0.63,0.03-0.93,0.09
			c0.63-1.96,2.45-3.38,4.6-3.42c-1.69-1.32-3.81-2.11-6.12-2.11c-0.4,0-0.79,0.02-1.17,0.07c2.18-1.4,4.77-2.21,7.55-2.21
			c9.06,0,14.01,7.5,14.01,14.01c0,0.21,0,0.43-0.01,0.64C10.51,5.59,11.34,6.46,12,7.44z"/> </symbol>  <symbol id="sq-you-youtube" viewBox="-11 -8.42 22 16.84"> <path class="icon-paint" d="M10.72,4.52l-0.01,0.07c-0.03,0.26-0.1,0.51-0.19,0.74h0.01c-0.35,1.48-2.01,2.61-4.08,2.8l-0.1,0.01
			c-4.22,0.37-8.48,0.37-12.7,0l-0.1-0.01c-2.07-0.18-3.73-1.32-4.08-2.8h0c-0.09-0.24-0.16-0.48-0.19-0.74l-0.01-0.07
			c-0.37-3.02-0.37-6.07,0-9.09l0.01-0.07c0.05-0.38,0.16-0.74,0.32-1.07C-9.87-7-8.34-7.97-6.44-8.13l0.1-0.01
			c4.22-0.37,8.48-0.37,12.7,0l0.1,0.01c1.95,0.17,3.52,1.19,3.99,2.54c0.13,0.3,0.23,0.62,0.27,0.95l0.01,0.07
			C11.09-1.55,11.09,1.5,10.72,4.52z M-4.11-4.66v9.33L5.22,0L-4.11-4.66z"/> </symbol> </defs><symbol viewBox="0 0 42 42" id="shape-sq-face"><title>sq-face</title>  <g> <use xlink:href="#sq-face-facebook" width="11.66" height="24" x="-5.83" y="-12" transform="matrix(0.75 0 0 -0.75 21.787 20.998)" overflow="visible"/> </g> </symbol><symbol viewBox="0 0 42 42" id="shape-sq-flickr"><title>sq-flickr</title>  <g> <g> <circle class="icon-paint" cx="14.5" cy="21" r="5"/> <circle class="icon-paint" cx="27.5" cy="21" r="5"/> </g> </g> </symbol><symbol viewBox="0 0 42 42" id="shape-sq-twitt"><title>sq-twitt</title>  <g> <use xlink:href="#sq-twitt-twitter" width="24" height="19.5" x="-12" y="-9.75" transform="matrix(0.75 0 0 -0.75 22.287 20.8422)" overflow="visible"/> </g> </symbol><symbol viewBox="0 0 42 42" id="shape-sq-you"><title>sq-you</title>  <g> <use xlink:href="#sq-you-youtube" width="22" height="16.84" x="-11" y="-8.42" transform="matrix(0.8182 0 0 -0.8182 21.287 20.1256)" overflow="visible"/> </g> </symbol></svg>